<svg width="78" height="32" viewBox="0 0 78 32" fill="none" xmlns="http://www.w3.org/2000/svg">
<g clip-path="url(#clip0_224_9229)">
<path d="M78 0.587891H73.7943V31.3986H78V0.587891Z" fill="#F88265"/>
<path d="M12.3047 32C8.33049 32 5.07337 30.5787 2.88847 27.8916C0.99804 25.5716 0 22.434 0 18.8189C0 9.82951 6.10063 0.204956 15.1841 0.204956C19.3831 0.204956 22.7256 1.5091 25.1241 4.08136C28.4869 7.68972 29.159 12.9446 29.1927 16.7917C32.8387 13.751 38.0537 10.0255 40.5622 10.6989C41.8368 11.0413 42.6303 12.136 42.6303 13.5572V31.4008H38.4246V15.3502C35.6844 16.848 30.5706 20.9834 29.0106 22.4835V31.4031H24.8049V26.8127C21.4714 29.3894 16.6857 32.0045 12.3047 32.0045V32ZM15.1841 4.41922C8.71487 4.41922 4.20571 12.0076 4.20571 18.8189C4.20571 21.4519 4.87556 23.6706 6.14784 25.2292C7.52801 26.9253 9.60052 27.7857 12.3047 27.7857C17.3376 27.7857 23.1775 22.9791 24.8071 21.1772C24.8139 20.9564 24.8319 20.6433 24.8588 20.2492C25.0387 17.6296 25.513 10.6719 22.0513 6.95543C20.4598 5.24585 18.2142 4.41696 15.1841 4.41696V4.41922Z" fill="#283754"/>
<path d="M65.5695 6.37884C65.6998 6.755 66.028 8.06365 64.776 9.04795C56.4904 15.5754 51.7767 23.1458 51.1046 31.3986H55.3261C56.0049 24.3824 60.0465 18.1319 67.3745 12.3612C69.6246 10.5909 70.4742 7.70101 69.5436 5.00262C68.6175 2.32225 66.1854 0.590149 63.3463 0.590149H47.0652V4.80441H63.3463C64.9041 4.80441 65.4413 6.0117 65.5695 6.3811V6.37884Z" fill="#AFD8D4"/>
<path d="M37.204 2.71866C37.204 1.17801 38.4246 0 39.9171 0C41.4097 0 42.6303 1.17801 42.6303 2.71866C42.6303 4.25931 41.4097 5.39227 39.9171 5.39227C38.4246 5.39227 37.204 4.21426 37.204 2.71866Z" fill="#283754"/>
</g>
<defs>
<clipPath id="clip0_224_9229">
<rect width="78" height="32" fill="white"/>
</clipPath>
</defs>
</svg>
