<svg width="36" height="36" viewBox="0 0 36 36" fill="none" xmlns="http://www.w3.org/2000/svg">
<path d="M5.913 36C5.1444 36 4.3974 35.8542 3.6882 35.5662C2.9538 35.2692 2.295 34.8318 1.7316 34.2666C1.1682 33.7032 0.7308 33.0444 0.432 32.31C0.1458 31.6026 0 30.8538 0 30.087C0 29.3202 0.1458 28.5714 0.4338 27.8622C0.7308 27.1278 1.1682 26.469 1.7334 25.9056L15.8112 11.8278H5.9148C5.1174 11.8278 4.3416 11.6712 3.6126 11.3634C2.9088 11.0664 2.2752 10.6398 1.7334 10.0962C1.1898 9.5526 0.765 8.9208 0.4662 8.217C0.1584 7.488 0.0018 6.7122 0.0018 5.9148C0.0018 5.1174 0.1584 4.3416 0.4662 3.6126C0.7632 2.9088 1.1898 2.2752 1.7334 1.7334C2.277 1.1898 2.9088 0.765001 3.6126 0.466201C4.3416 0.158401 5.1174 0.00180054 5.9148 0.00180054H20.0826C24.165 0.00180054 27.8118 2.439 29.3742 6.21C30.9366 9.981 30.0798 14.2848 27.1944 17.1702L10.0962 34.2684C9.5328 34.8318 8.874 35.2692 8.1396 35.568C7.4304 35.856 6.6816 36.0018 5.9148 36.0018L5.913 36ZM5.913 1.467C4.725 1.467 3.609 1.9296 2.7684 2.7684C1.9278 3.609 1.467 4.725 1.467 5.913C1.467 7.101 1.9296 8.217 2.7684 9.0576C3.6072 9.8982 4.725 10.359 5.913 10.359H19.3518L2.7702 26.9424C1.9296 27.783 1.4688 28.899 1.4688 30.087C1.4688 31.275 1.9314 32.391 2.7702 33.2316C3.609 34.0722 4.7268 34.533 5.9148 34.533C7.1028 34.533 8.2188 34.0704 9.0594 33.2316L26.1576 16.1334C28.6236 13.6674 29.3544 9.9936 28.0206 6.7716C26.6868 3.5496 23.571 1.4688 20.0844 1.4688H5.913V1.467Z" fill="#AFD8D4"/>
<path d="M30.0888 36C29.2914 36 28.5156 35.8434 27.7866 35.5356C27.0828 35.2386 26.4492 34.812 25.9074 34.2684C25.3638 33.7248 24.939 33.093 24.6402 32.3892C24.3324 31.6602 24.1758 30.8844 24.1758 30.087V14.8932C24.1758 13.203 22.8006 11.8278 21.1104 11.8278H15.8112L25.9056 1.7334C26.0316 1.6074 26.1684 1.4832 26.3142 1.3608C27.4428 0.423 28.8756 -0.0575995 30.3462 0.00720051C31.8276 0.0720005 33.219 0.684 34.2684 1.7334C34.8318 2.2986 35.2692 2.9556 35.568 3.69C35.856 4.3992 36 5.1462 36 5.9148V30.087C36 30.8844 35.8434 31.6602 35.5356 32.3892C35.2386 33.093 34.812 33.7266 34.2684 34.2684C33.7248 34.812 33.093 35.2368 32.3892 35.5356C31.6602 35.8434 30.8844 36 30.087 36H30.0888ZM19.3554 10.359H21.1104C23.6088 10.359 25.6428 12.393 25.6428 14.8914V30.0852C25.6428 31.2732 26.1054 32.3892 26.9442 33.2298C27.783 34.0704 28.9008 34.5312 30.0888 34.5312C31.2768 34.5312 32.3928 34.0686 33.2334 33.2298C34.074 32.391 34.5348 31.2732 34.5348 30.0852V5.913C34.5348 4.725 34.0722 3.609 33.2334 2.7702C32.445 1.9818 31.3974 1.521 30.285 1.4724C29.1798 1.4238 28.1034 1.7856 27.2538 2.4894C27.1404 2.583 27.0396 2.6748 26.9442 2.7702L19.3536 10.3608L19.3554 10.359Z" fill="#F88265"/>
</svg>
