<svg width="32" height="32" viewBox="0 0 32 32" fill="none" xmlns="http://www.w3.org/2000/svg">
<path d="M0 8C0 3.58172 3.58172 0 8 0H24C28.4183 0 32 3.58172 32 8V24C32 28.4183 28.4183 32 24 32H8C3.58172 32 0 28.4183 0 24V8Z" fill="#F5F2EF"/>
<g clip-path="url(#clip0_81_2248)">
<path d="M18.6768 10.484H15.5128L3.37202 22.6304C1.66962 24.3328 1.58562 27.2056 3.33842 28.852C4.15602 29.6192 5.19762 30 6.24482 30C7.29202 30 8.41762 29.5856 9.24642 28.7568L21.516 16.4872V13.3232C21.516 11.7552 20.2448 10.484 18.6768 10.484Z" fill="#AFD8D4"/>
<path d="M17.764 2.00003H6.24478C3.85358 2.00003 1.92718 3.97123 1.99998 6.37363C2.06718 8.69763 4.09438 10.484 6.41838 10.484H15.5128L22.4176 3.57923C21.18 2.60483 19.5952 1.99443 17.764 1.99443V2.00003Z" fill="#AFD8D4"/>
<path d="M30 6.2448C30 5.052 29.5072 3.9712 28.712 3.204C27.9224 2.4312 26.8304 1.9664 25.6264 2C24.4672 2.0336 23.5376 2.4592 22.7592 3.2376L22.4176 3.5792C25.7216 6.1832 26.5672 11.4304 23.1064 14.8912L21.516 16.4816V25.7496C21.516 28.1352 23.4872 30.0616 25.8896 29.9888C28.2136 29.9216 30 27.8944 30 25.5704V6.2448Z" fill="#F88265"/>
<path d="M22.4176 3.57956L15.5128 10.4844H18.6768C20.2448 10.4844 21.516 11.7556 21.516 13.3236V16.4876L23.1064 14.8972C26.5672 11.4364 25.7272 6.18916 22.4176 3.58516V3.57956Z" fill="#283754"/>
</g>
<defs>
<clipPath id="clip0_81_2248">
<rect width="28" height="28" fill="white" transform="translate(2 2)"/>
</clipPath>
</defs>
</svg>
