<svg width="32" height="32" viewBox="0 0 32 32" fill="none" xmlns="http://www.w3.org/2000/svg">
<path d="M32 5.25609C32 4.57289 31.8704 3.90889 31.616 3.27849C31.352 2.62569 30.9632 2.04009 30.4608 1.53929C29.528 0.608089 28.2896 0.0624891 26.9744 0.00488905C25.6672 -0.052711 24.3936 0.376089 23.3904 1.20809C23.2608 1.31529 23.1376 1.42729 23.0272 1.53929L22.9664 1.60009C21.4992 0.579289 19.7264 8.90523e-05 17.8512 8.90523e-05H5.256C4.5472 8.90523e-05 3.8576 0.139289 3.2096 0.412889C2.584 0.676889 2.0208 1.05609 1.5392 1.53929C1.056 2.02249 0.6784 2.58409 0.4128 3.20969C0.1392 3.85769 0 4.54729 0 5.25609C0 5.96489 0.1392 6.65449 0.4128 7.30249C0.6768 7.92809 1.056 8.49129 1.5392 8.97289C2.0224 9.45609 2.584 9.83369 3.2096 10.0993C3.8576 10.3729 4.5472 10.5121 5.256 10.5121H14.0528L1.5392 23.0273C1.0384 23.5281 0.6496 24.1137 0.384 24.7665C0.1296 25.3953 0 26.0609 0 26.7441C0 27.4273 0.1296 28.0913 0.3856 28.7217C0.6496 29.3745 1.0384 29.9601 1.5408 30.4609C2.0416 30.9617 2.6272 31.3505 3.28 31.6161C3.9104 31.8721 4.576 32.0017 5.2576 32.0017C5.9392 32.0017 6.6048 31.8721 7.2352 31.6161C7.888 31.3521 8.4736 30.9633 8.9744 30.4609L21.488 17.9473V26.7441C21.488 27.4529 21.6272 28.1425 21.9008 28.7905C22.1648 29.4161 22.544 29.9793 23.0272 30.4609C23.5104 30.9441 24.072 31.3217 24.6976 31.5873C25.3456 31.8609 26.0352 32.0001 26.744 32.0001C27.4528 32.0001 28.1424 31.8609 28.7904 31.5873C29.416 31.3233 29.9792 30.9441 30.4608 30.4609C30.944 29.9777 31.3216 29.4161 31.5872 28.7905C31.8608 28.1425 32 27.4529 32 26.7441V5.25609ZM18.7632 9.20809H17.2032L23.0608 3.35049C23.8432 4.08009 24.4784 4.98249 24.9056 6.01769C26.0912 8.88169 25.4416 12.1473 23.2496 14.3393L22.7904 14.7985V13.2385C22.7904 11.0177 20.9824 9.20969 18.7616 9.20969L18.7632 9.20809ZM5.256 9.20809C4.2 9.20809 3.208 8.79689 2.4608 8.05129C1.7136 7.30569 1.304 6.31209 1.304 5.25609C1.304 4.20009 1.7152 3.20809 2.4608 2.46089C3.2064 1.71369 4.2 1.30409 5.256 1.30409H17.8496C19.3696 1.30409 20.8096 1.74889 22.024 2.54089L15.3568 9.20809H5.256ZM8.0512 29.5377C7.3056 30.2849 6.312 30.6945 5.256 30.6945C4.2 30.6945 3.208 30.2833 2.4608 29.5377C1.7136 28.7905 1.304 27.7985 1.304 26.7425C1.304 25.6865 1.7152 24.6945 2.4608 23.9473L15.896 10.5121H18.7616C20.264 10.5121 21.4864 11.7345 21.4864 13.2369V16.1009L8.0512 29.5361V29.5377ZM29.5376 29.5377C28.7904 30.2849 27.7984 30.6945 26.7424 30.6945C25.6864 30.6945 24.6944 30.2833 23.9472 29.5377C23.2 28.7905 22.7904 27.7985 22.7904 26.7425V16.6417L24.1712 15.2609C26.7376 12.6945 27.4976 8.87049 26.1088 5.51849C25.6128 4.32329 24.8816 3.27849 23.9808 2.42889C24.056 2.35689 24.1344 2.28489 24.2208 2.21289C24.9744 1.58729 25.9312 1.26569 26.9152 1.30889C27.904 1.35209 28.8352 1.76169 29.536 2.46249C30.2816 3.20809 30.6928 4.20169 30.6928 5.25609V26.7425C30.6928 27.7985 30.2816 28.7905 29.536 29.5377H29.5376Z" fill="white"/>
</svg>
